<?xml version="1.0" encoding="UTF-8" standalone="no"?>
<!DOCTYPE svg PUBLIC "-//W3C//DTD SVG 1.1//EN" "http://www.w3.org/Graphics/SVG/1.1/DTD/svg11.dtd">
<svg width="100%" height="100%" viewBox="0 0 3507 2480" version="1.1" xmlns="http://www.w3.org/2000/svg" xmlns:xlink="http://www.w3.org/1999/xlink" xml:space="preserve" xmlns:serif="http://www.serif.com/" style="fill-rule:evenodd;clip-rule:evenodd;stroke-linecap:round;stroke-linejoin:round;stroke-miterlimit:1.5;">
    <g transform="matrix(1.82575,0,0,1.82575,-1451.57,-990.069)">
        <g transform="matrix(1.89892,0,0,1.71597,-1137.56,-2011.48)">
            <g transform="matrix(265.914,0,0,265.914,1977.73,1974.2)">
            </g>
            <text x="1401.5px" y="1974.2px" style="font-family:'TimesNewRomanPS-BoldMT', 'Times New Roman', serif;font-weight:700;font-size:265.914px;fill:rgb(27,27,31);">TMS</text>
        </g>
        <path d="M1623.47,1402.46C1623.47,1402.46 2615.56,1411.54 2597.77,1407" style="fill:none;stroke:rgb(27,27,31);stroke-width:11.41px;"/>
        <path d="M1986.85,1045.9L2375.85,753.105L1874.57,883.778L1851.58,640.024L1631.47,951.445L1279.11,1045.9L1425.06,1240.16L1006.43,1788.73L1542.01,1383.32L1917.71,1809.24L1903.51,1438.29" style="fill:none;stroke:rgb(27,27,31);stroke-width:11.41px;"/>
        <path d="M2000.32,1431.98C2000.32,1431.98 2016.67,1715.79 2016.67,1782.85C2016.67,1883.74 1900.99,1928.77 1840.37,1854.36C1781.72,1782.37 1542.01,1491.13 1542.01,1491.13C1542.01,1491.13 1170.1,1768.49 1084.25,1835.45C961.524,1931.18 868.085,1850.3 936.66,1736.74C994.284,1641.32 1318.08,1222.13 1318.08,1222.13C1318.08,1222.13 1243.68,1125.58 1215.38,1092.65C1177.81,1048.93 1195.08,987.578 1276.48,964.96C1341.66,946.847 1569.92,894.975 1569.92,894.975C1569.92,894.975 1735.23,663.393 1784.31,603.105C1821.21,557.775 1886.18,514.76 1923.17,603.105C1938.99,640.899 1933.75,795.17 1933.75,795.17C1933.75,795.17 2277.14,694.861 2353.99,677.205C2435.31,658.52 2504.63,728.587 2435.31,811.904C2379.99,878.398 2173.74,999.068 2042.95,1092.65" style="fill:none;stroke:rgb(27,27,31);stroke-width:11.41px;"/>
    </g>
</svg>
